<svg width="25" height="24" viewBox="0 0 25 24" fill="none" xmlns="http://www.w3.org/2000/svg">
<path d="M12.7617 20.25C8.21172 20.25 4.51172 16.55 4.51172 12C4.51172 7.45 8.21172 3.75 12.7617 3.75C17.3117 3.75 21.0117 7.45 21.0117 12C21.0117 16.55 17.3117 20.25 12.7617 20.25ZM12.7617 5.25C9.04172 5.25 6.01172 8.28 6.01172 12C6.01172 15.72 9.04172 18.75 12.7617 18.75C16.4817 18.75 19.5117 15.72 19.5117 12C19.5117 8.28 16.4817 5.25 12.7617 5.25Z" fill="#C1DBFA" fill-opacity="0.8"/>
<path d="M12.7617 15.75C10.6917 15.75 9.01172 14.07 9.01172 12C9.01172 9.93 10.6917 8.25 12.7617 8.25C14.8317 8.25 16.5117 9.93 16.5117 12C16.5117 14.07 14.8317 15.75 12.7617 15.75ZM12.7617 9.75C11.5217 9.75 10.5117 10.76 10.5117 12C10.5117 13.24 11.5217 14.25 12.7617 14.25C14.0017 14.25 15.0117 13.24 15.0117 12C15.0117 10.76 14.0017 9.75 12.7617 9.75Z" fill="#C1DBFA" fill-opacity="0.8"/>
<path d="M12.7617 4.75C12.3517 4.75 12.0117 4.41 12.0117 4V2C12.0117 1.59 12.3517 1.25 12.7617 1.25C13.1717 1.25 13.5117 1.59 13.5117 2V4C13.5117 4.41 13.1717 4.75 12.7617 4.75Z" fill="#C1DBFA" fill-opacity="0.8"/>
<path d="M4.76172 12.75H2.76172C2.35172 12.75 2.01172 12.41 2.01172 12C2.01172 11.59 2.35172 11.25 2.76172 11.25H4.76172C5.17172 11.25 5.51172 11.59 5.51172 12C5.51172 12.41 5.17172 12.75 4.76172 12.75Z" fill="#C1DBFA" fill-opacity="0.8"/>
<path d="M12.7617 22.75C12.3517 22.75 12.0117 22.41 12.0117 22V20C12.0117 19.59 12.3517 19.25 12.7617 19.25C13.1717 19.25 13.5117 19.59 13.5117 20V22C13.5117 22.41 13.1717 22.75 12.7617 22.75Z" fill="#C1DBFA" fill-opacity="0.8"/>
<path d="M22.7617 12.75H20.7617C20.3517 12.75 20.0117 12.41 20.0117 12C20.0117 11.59 20.3517 11.25 20.7617 11.25H22.7617C23.1717 11.25 23.5117 11.59 23.5117 12C23.5117 12.41 23.1717 12.75 22.7617 12.75Z" fill="#C1DBFA" fill-opacity="0.8"/>
</svg>
