<svg width="28" height="28" viewBox="0 0 28 28" fill="none" xmlns="http://www.w3.org/2000/svg">
<g clip-path="url(#clip0_471_4383)">
<path fill-rule="evenodd" clip-rule="evenodd" d="M16.0134 24.5372C16.1132 24.4374 16.2485 24.3814 16.3896 24.3814H19.8522C22.7903 24.3814 25.1722 21.9995 25.1722 19.0614V10.5494C25.1722 7.61121 22.7903 5.22937 19.8522 5.22937H19.0542H6.02019C3.08204 5.22937 0.700195 7.61121 0.700195 10.5494V14.8054V19.0614C0.700195 21.9995 3.08204 24.3814 6.02019 24.3814H9.15548C9.29657 24.3814 9.43188 24.4374 9.53166 24.5372L11.8321 26.8376C12.3515 27.3571 13.1936 27.3571 13.713 26.8376L16.0134 24.5372Z" fill="#027EF1"/>
<path fill-rule="evenodd" clip-rule="evenodd" d="M5.48828 10.2834C5.48828 9.69574 5.96466 9.21936 6.55228 9.21936H10.2763C10.8639 9.21936 11.3403 9.69574 11.3403 10.2834C11.3403 10.871 10.8639 11.3474 10.2763 11.3474H6.55228C5.96466 11.3474 5.48828 10.871 5.48828 10.2834Z" fill="white"/>
<path fill-rule="evenodd" clip-rule="evenodd" d="M5.48828 18.7954C5.48828 18.2078 5.96466 17.7314 6.55228 17.7314H19.3203C19.9079 17.7314 20.3843 18.2078 20.3843 18.7954C20.3843 19.3831 19.9079 19.8594 19.3203 19.8594H6.55228C5.96466 19.8594 5.48828 19.3831 5.48828 18.7954Z" fill="white"/>
<path fill-rule="evenodd" clip-rule="evenodd" d="M5.48828 14.5393C5.48828 13.9517 5.96466 13.4753 6.55228 13.4753H12.1383C12.7259 13.4753 13.2023 13.9517 13.2023 14.5393C13.2023 15.127 12.7259 15.6033 12.1383 15.6033H6.55228C5.96466 15.6033 5.48828 15.127 5.48828 14.5393Z" fill="white"/>
<path d="M27.2996 8.05239C27.2996 12.1117 24.0089 15.4024 19.9496 15.4024C15.8903 15.4024 12.5996 12.1117 12.5996 8.05239C12.5996 3.99309 15.8903 0.702393 19.9496 0.702393C24.0089 0.702393 27.2996 3.99309 27.2996 8.05239Z" fill="#FFBA33"/>
<path fill-rule="evenodd" clip-rule="evenodd" d="M18.1412 6.77728C18.4681 5.83692 19.798 5.83695 20.1248 6.77728L20.2951 7.26721L20.8137 7.27778C21.809 7.29806 22.22 8.56284 21.4266 9.16428L21.0133 9.47762L21.1635 9.97409C21.4518 10.927 20.3759 11.7086 19.5588 11.14L19.133 10.8437L18.7073 11.14C17.8901 11.7086 16.8142 10.927 17.1025 9.97409L17.2527 9.47762L16.8394 9.16428C16.0461 8.56282 16.457 7.29806 17.4523 7.27778L17.9709 7.26721L18.1412 6.77728Z" fill="white"/>
</g>
<defs>
<clipPath id="clip0_471_4383">
<rect width="28" height="28" fill="white"/>
</clipPath>
</defs>
</svg>
